# Blender 5.0.1
# www.blender.org
mtllib MaskedPart2.mtl
o MaskPart2
v -0.137521 1.336522 0.170994
v -0.200663 1.682188 0.250349
v 0.137521 1.336522 0.170994
v 0.200663 1.682188 0.250349
v 0.250697 1.653518 0.125027
v -0.110001 1.682188 0.171136
v 0.302889 1.571266 0.083325
v 0.200663 1.682188 0.171136
v 0.200663 1.682188 -0.005234
v 0.250697 1.653518 0.041092
v 0.310332 1.509355 0.083508
vn 0.9837 -0.1797 -0.0000
vn -0.0000 -0.2238 0.9746
vn 0.0040 -0.4548 -0.8906
vn -0.0000 1.0000 -0.0000
vn -0.0000 -0.4542 -0.8909
vn -0.6570 0.0526 -0.7520
vn 0.8444 0.5358 -0.0000
vn -0.4933 0.0396 -0.8689
vn 0.5244 -0.0961 0.8460
vn 0.4972 0.8677 -0.0000
vn 0.7015 0.0864 0.7074
vn 0.7021 0.0823 -0.7073
vt 0.625000 0.710737
vt 0.625000 0.750000
vt 0.375000 0.750000
vt 0.625000 1.000000
vt 0.375000 1.000000
vt 0.625000 0.623317
vt 0.500000 0.710737
vt 0.875000 0.710737
vt 0.875000 0.750000
vt 0.375000 0.000000
vt 0.625000 0.000000
vt 0.625000 0.039263
vt 0.607289 0.652433
vt 0.607289 0.694037
vt 0.547801 0.694037
vt 0.000000 0.000000
s 0
f 8/1/1 4/2/1 3/3/1
f 3/3/2 4/2/2 2/4/2 1/5/2
f 3/3/3 9/6/3 11/7/3
f 8/1/4 6/8/4 2/9/4 4/2/4
f 3/3/5 1/10/5 9/6/5
f 1/10/6 2/11/6 6/12/6
f 10/13/7 5/14/7 7/15/7
f 9/16/8 1/10/8 6/12/8
f 11/7/9 8/1/9 3/3/9
f 5/14/10 10/13/10 9/6/10 8/1/10
f 7/15/11 5/14/11 8/1/11 11/7/11
f 10/13/12 7/15/12 11/7/12 9/6/12
f 9/16/4 6/12/4 8/1/4
