# Blender 5.0.1
# www.blender.org
mtllib MaskedPart4.mtl
o MaskPart4
v -0.137521 1.336522 0.170254
v -0.137521 1.336522 -0.175411
v -0.144219 1.662337 -0.125778
v -0.144219 1.662337 0.115967
v -0.137521 1.336522 -0.125778
v -0.144219 1.662337 0.170254
v -0.137521 1.336522 0.115967
v 0.051289 1.828328 -0.005973
v -0.144219 1.662337 -0.175411
v 0.200663 1.682188 -0.005973
v 0.121220 1.825485 -0.005973
v -0.074288 1.593920 -0.125778
v -0.074288 1.593920 -0.175411
v -0.074288 1.593920 0.170254
v -0.074288 1.593920 0.115967
v 0.089864 1.788347 -0.033148
v 0.019933 1.801707 -0.033148
v 0.146425 1.626750 -0.033148
v 0.020077 1.801829 0.022160
v 0.090008 1.788517 0.022160
v 0.146673 1.627004 0.022160
v -0.097827 1.498103 0.170254
v -0.097827 1.498103 -0.175411
v -0.097827 1.498103 0.115967
v 0.150793 1.772142 -0.005973
v -0.097827 1.498103 -0.125778
v 0.110919 1.728192 -0.033148
v 0.111102 1.728393 0.022160
v -0.144219 1.662337 0.006227
v -0.137521 1.336522 0.006227
v -0.074288 1.593920 0.006227
v -0.097827 1.498103 0.006227
v -0.144219 1.662337 0.103381
v -0.137521 1.336522 0.103381
v -0.074288 1.593920 0.103381
v -0.097827 1.498103 0.103381
v -0.097827 1.498103 0.006227
v -0.144219 1.662337 0.006227
v -0.137521 1.336522 0.006227
v -0.074288 1.593920 0.006227
v 0.156712 1.744220 -0.126265
v 0.135657 1.804375 -0.126265
v 0.196586 1.788170 -0.099090
v 0.158293 1.744950 0.114483
v 0.137199 1.805074 0.114483
v 0.197984 1.788699 0.086349
vn 0.1013 0.5303 -0.8417
vn -0.6472 0.7623 -0.0000
vn 0.1238 0.6501 0.7497
vn -0.6993 -0.7148 -0.0000
vn 0.5139 0.1799 -0.8388
vn 0.1445 0.9585 -0.2457
vn -0.9711 0.2386 -0.0000
vn 0.7148 -0.6993 -0.0000
vn 0.4490 0.2489 -0.8582
vn 0.0235 0.5774 -0.8161
vn 0.6870 -0.1688 0.7068
vn 0.3972 0.4060 0.8231
vn 0.5656 -0.1389 0.8129
vn 0.3808 0.2111 -0.9002
vn 0.3553 0.1247 0.9264
vn 0.4361 0.1527 -0.8868
vn 0.3866 0.3952 -0.8333
vn 0.0241 0.5925 0.8052
vn 0.6734 -0.1654 -0.7205
vn 0.4620 0.2561 0.8491
vn 0.1489 0.9597 0.2384
vn 0.1214 0.6354 -0.7626
vn 0.5278 0.1852 0.8289
vn 0.1038 0.5453 0.8318
vn 0.4494 0.1577 0.8793
vn 0.3437 0.1203 -0.9314
vn 0.3930 0.2179 0.8933
vn 0.5509 -0.1353 -0.8235
vn 0.7383 0.6745 -0.0000
vn 0.9507 -0.3101 -0.0000
vn 0.9327 -0.3608 -0.0000
vn 0.6607 -0.7234 0.2004
vn -0.8370 -0.2930 -0.4621
vn 0.6557 -0.7267 -0.2049
vn -0.8297 -0.2911 0.4763
vn -1.0000 -0.0000 -0.0000
vn 1.0000 -0.0000 -0.0000
vn 0.9870 -0.1609 -0.0000
vn 0.9818 -0.1899 -0.0000
vt 0.125000 0.500000
vt 0.544810 0.603540
vt 0.545177 0.643542
vt 0.125000 0.631369
vt 0.625000 0.623317
vt 0.125000 0.710737
vt 0.125000 0.701635
vt 0.625000 0.623317
vt 0.125000 0.750000
vt 0.125000 0.710737
vt 0.125000 0.535897
vt 0.125000 0.701634
vt 0.545177 0.643542
vt 0.544810 0.603540
vt 0.125000 0.631368
vt 0.125000 0.631369
s 0
f 13/1/1 17/2/1 16/2/1
f 19/3/2 17/2/2 38/4/2
f 20/3/3 8/5/3 19/3/3
f 15/6/4 33/7/4 35/7/4
f 27/2/5 13/1/5 16/2/5
f 25/8/6 45/3/6 46/8/6
f 14/9/4 4/6/4 15/6/4
f 22/9/7 15/6/7 24/10/7
f 26/11/7 13/1/7 23/1/7
f 24/10/7 35/7/7 36/12/7
f 12/11/4 9/1/4 13/1/4
f 34/7/8 30/4/8 21/13/8
f 25/8/9 16/2/9 11/5/9
f 16/2/10 8/5/10 11/5/10
f 28/13/11 14/9/11 22/9/11
f 14/9/12 19/3/12 6/9/12
f 21/13/13 22/9/13 1/9/13
f 10/5/14 27/2/14 25/8/14
f 7/6/7 36/12/7 34/7/7
f 5/11/7 23/1/7 2/1/7
f 1/9/7 24/10/7 7/6/7
f 10/5/15 28/13/15 21/13/15
f 18/14/16 23/1/16 27/2/16
f 13/1/17 9/1/17 17/2/17
f 20/3/18 11/5/18 8/5/18
f 27/2/19 23/1/19 13/1/19
f 25/8/20 11/5/20 20/3/20
f 25/8/21 42/2/21 16/2/21
f 16/2/22 17/2/22 8/5/22
f 28/13/23 20/3/23 14/9/23
f 14/9/24 20/3/24 19/3/24
f 21/13/25 28/13/25 22/9/25
f 10/5/26 18/14/26 27/2/26
f 10/5/27 25/8/27 28/13/27
f 18/14/28 2/1/28 23/1/28
f 30/4/7 26/11/7 5/11/7
f 32/15/7 12/11/7 26/11/7
f 31/15/4 3/11/4 12/11/4
f 34/7/7 37/15/7 39/16/7
f 36/12/7 40/4/7 37/15/7
f 35/7/4 38/4/4 40/4/4
f 40/4/29 29/15/29 31/15/29
f 37/15/30 31/15/30 32/15/30
f 39/16/31 32/15/31 30/4/31
f 43/8/16 41/2/16 42/2/16
f 25/8/32 41/2/32 43/8/32
f 27/2/33 42/2/33 41/2/33
f 46/8/25 45/3/25 44/13/25
f 25/8/34 44/13/34 28/13/34
f 28/13/35 45/3/35 20/3/35
f 4/6/2 6/9/2 19/3/2
f 19/3/2 8/5/2 17/2/2
f 17/2/2 9/1/2 3/11/2
f 3/11/36 29/15/36 38/4/36
f 33/7/2 4/6/2 19/3/2
f 3/11/2 38/4/2 17/2/2
f 38/4/2 33/7/2 19/3/2
f 15/6/4 4/6/4 33/7/4
f 25/8/6 20/3/6 45/3/6
f 14/9/4 6/9/4 4/6/4
f 22/9/7 14/9/7 15/6/7
f 26/11/7 12/11/7 13/1/7
f 24/10/7 15/6/7 35/7/7
f 12/11/4 3/11/4 9/1/4
f 21/13/8 1/9/8 7/6/8
f 21/13/8 7/6/8 34/7/8
f 18/14/8 10/5/8 21/13/8
f 5/11/8 2/1/8 18/14/8
f 5/11/8 18/14/8 30/4/8
f 18/14/8 21/13/8 30/4/8
f 34/7/37 39/16/37 30/4/37
f 7/6/7 24/10/7 36/12/7
f 5/11/7 26/11/7 23/1/7
f 1/9/7 22/9/7 24/10/7
f 25/8/21 43/8/21 42/2/21
f 30/4/7 32/15/7 26/11/7
f 32/15/7 31/15/7 12/11/7
f 31/15/4 29/15/4 3/11/4
f 34/7/7 36/12/7 37/15/7
f 36/12/7 35/7/7 40/4/7
f 35/7/4 33/7/4 38/4/4
f 40/4/29 38/4/29 29/15/29
f 37/15/38 40/4/38 31/15/38
f 39/16/39 37/15/39 32/15/39
f 25/8/32 27/2/32 41/2/32
f 27/2/33 16/2/33 42/2/33
f 25/8/34 46/8/34 44/13/34
f 28/13/35 44/13/35 45/3/35
