# Blender 5.0.1
# www.blender.org
mtllib MaskedPart1.mtl
o MaskPart1
v -0.137521 1.336522 0.170254
v -0.137521 1.336522 -0.175411
v 0.137521 1.336522 0.170254
v 0.137521 1.336522 -0.175411
v -0.137521 1.336522 -0.125778
v 0.137521 1.336522 -0.125778
v -0.137521 1.336522 0.115967
v 0.137521 1.336522 0.115967
v 0.198717 1.418144 -0.007420
v 0.200663 1.682188 -0.005973
v 0.277744 1.497181 0.032673
v 0.277744 1.497181 -0.048003
v 0.310332 1.509355 -0.093648
v 0.137521 1.336522 -0.004905
v 0.310332 1.509355 0.082769
vn -0.0000 -1.0000 -0.0000
vn 0.8444 0.5358 -0.0000
vn 0.7072 -0.7071 -0.0000
vn 0.7439 -0.5459 0.3855
vn 0.7454 -0.5695 -0.3465
vn 0.3499 -0.9368 -0.0000
vn -0.0013 0.4544 0.8908
vn -0.0064 0.4411 -0.8974
vn -0.7148 0.6993 -0.0000
vt 0.125000 0.710737
vt 0.375000 0.710737
vt 0.375000 0.750000
vt 0.125000 0.750000
vt 0.125000 0.500000
vt 0.375000 0.500000
vt 0.375000 0.535897
vt 0.125000 0.535897
vt 0.375000 0.623317
vt 0.500000 0.535897
vt 0.625000 0.623317
vt 0.500000 0.710737
vt 0.427067 0.623338
vt 0.484230 0.583360
vt 0.484230 0.663315
s 0
f 7/1/1 8/2/1 3/3/1 1/4/1
f 2/5/1 4/6/1 6/7/1 5/8/1
f 5/8/1 6/7/1 14/9/1 8/2/1 7/1/1
f 13/10/2 10/11/2 15/12/2
f 14/9/3 6/7/3 13/10/3
f 15/12/3 8/2/3 14/9/3
f 9/13/3 12/14/3 11/15/3
f 6/7/3 4/6/3 13/10/3
f 3/3/3 8/2/3 15/12/3
f 12/14/4 9/13/4 14/9/4 13/10/4
f 9/13/5 11/15/5 15/12/5 14/9/5
f 11/15/6 12/14/6 13/10/6 15/12/6
f 1/4/7 3/3/7 15/12/7 10/11/7
f 4/6/8 2/5/8 10/11/8 13/10/8
f 1/4/9 10/11/9 2/5/9 5/8/9 7/1/9
