# Blender 5.0.1
# www.blender.org
o RobotBody
v -0.375915 0.376560 0.373337
v -0.262496 0.901552 0.259917
v -0.375915 0.376560 -0.378494
v -0.262496 0.901552 -0.265075
v 0.462539 0.376560 0.459960
v 0.262496 0.901552 0.259917
v 0.462539 0.376560 -0.465117
v 0.262496 0.901552 -0.265075
v -0.375915 0.376560 -0.243382
v -0.375915 0.376560 0.238225
v -0.262496 0.901552 0.084920
v -0.262496 0.901552 -0.090077
v 0.375915 0.376560 0.064977
v 0.375915 0.376560 -0.070134
v 0.262496 0.901552 -0.090077
v 0.262496 0.901552 0.084920
v 0.154180 0.376560 -0.465117
v -0.240803 0.376560 -0.378494
v -0.087499 0.901552 -0.265075
v 0.087499 0.901552 -0.265075
v -0.240803 0.376560 0.373337
v 0.154180 0.376560 0.459960
v 0.087499 0.901552 0.259917
v -0.087499 0.901552 0.259917
v -0.087499 0.901552 -0.090077
v 0.087499 0.901552 -0.090077
v -0.087499 0.901552 0.084920
v 0.087499 0.901552 0.084920
v 0.240803 0.376560 -0.070134
v -0.240803 0.376560 -0.243382
v 0.240803 0.376560 0.064977
v -0.240803 0.376560 0.238225
v -0.087499 1.221078 -0.090077
v 0.087499 1.221078 -0.090077
v -0.087499 1.221078 0.084920
v 0.087499 1.221078 0.084920
v -0.462539 0.376560 0.151601
v -0.462539 0.376560 0.459960
v -0.154180 0.376560 -0.465117
v -0.462539 0.376560 -0.465117
v -0.462539 0.376560 -0.156758
v 0.462539 0.376560 0.151601
v 0.462539 0.376560 -0.156758
v -0.154180 0.376560 -0.156758
v -0.154180 0.376560 0.151601
v -0.154180 0.376560 0.459960
v 0.154180 0.376560 -0.156758
v 0.154180 0.376560 0.151601
v -0.466306 0.001552 0.238225
v -0.466306 0.001552 0.373337
v -0.359011 0.001552 -0.378494
v -0.466306 0.001552 -0.378494
v -0.466306 0.001552 -0.243382
v 0.436778 0.001552 0.064977
v 0.436778 0.001552 -0.070134
v -0.359011 0.001552 -0.243382
v -0.359011 0.001552 0.238225
v -0.359011 0.001552 0.373337
v 0.343510 0.001552 -0.070134
v 0.343510 0.001552 0.064977
v 0.466215 0.046855 -0.070134
v 0.331103 0.046855 -0.070134
v 0.331103 0.046855 0.064977
v 0.466215 0.046855 0.064977
v -0.483567 0.035039 -0.243382
v -0.348455 0.035039 -0.243382
v -0.348455 0.035039 -0.378494
v -0.483567 0.035039 -0.378494
v -0.484548 0.031928 0.238225
v -0.484548 0.031928 0.373337
v -0.349436 0.031928 0.373337
v -0.349436 0.031928 0.238225
v -0.124435 1.340381 -0.167528
v 0.124435 1.340381 -0.167528
v -0.124435 1.340381 0.162371
v 0.124435 1.340381 0.162371
v -0.044204 1.531610 -0.074701
v 0.056832 1.531610 -0.074701
v -0.044204 1.531610 0.069544
v 0.056832 1.531610 0.069544
vn -0.9345 0.3561 -0.0000
vn -0.0000 0.3561 -0.9345
vn 0.9345 0.3561 -0.0000
vn -0.0000 0.3561 0.9345
vn -0.0000 -1.0000 -0.0000
vn -0.0000 1.0000 -0.0000
vn -0.0000 -0.0000 1.0000
vn -0.0000 -0.0000 -1.0000
vn -1.0000 -0.0000 -0.0000
vn -0.8573 -0.5149 -0.0000
vn -0.0000 -0.5445 0.8388
vn 1.0000 -0.0000 -0.0000
vn 0.9537 -0.3006 -0.0000
vn -0.8889 -0.4582 -0.0000
vn -0.9645 -0.2642 -0.0000
vn 0.8385 -0.5449 -0.0000
vn 0.9645 0.2642 -0.0000
vn -0.9537 0.3006 -0.0000
vn -0.9221 0.3869 -0.0000
vn 0.9553 -0.2958 -0.0000
vn -0.0000 -0.5445 -0.8388
vn -0.9553 -0.2958 -0.0000
vn -0.0000 0.4367 0.8996
vn 0.9428 0.3333 -0.0000
vn -0.0000 0.4367 -0.8996
vt 0.375000 0.166667
vt 0.625000 0.166667
vt 0.625000 0.250000
vt 0.375000 0.250000
vt 0.375000 0.416667
vt 0.625000 0.416667
vt 0.625000 0.500000
vt 0.375000 0.500000
vt 0.375000 0.666667
vt 0.625000 0.666667
vt 0.625000 0.750000
vt 0.375000 0.750000
vt 0.375000 0.916667
vt 0.625000 0.916667
vt 0.625000 1.000000
vt 0.375000 1.000000
vt 0.291667 0.666667
vt 0.291667 0.750000
vt 0.791667 0.666667
vt 0.875000 0.666667
vt 0.875000 0.750000
vt 0.791667 0.750000
vt 0.791667 0.500000
vt 0.875000 0.500000
vt 0.875000 0.583333
vt 0.791667 0.583333
vt 0.291667 0.500000
vt 0.375000 0.583333
vt 0.291667 0.583333
vt 0.184924 0.559924
vt 0.148410 0.559924
vt 0.184923 0.559924
vt 0.625000 0.583333
vt 0.375000 0.000000
vt 0.625000 0.000000
vt 0.625000 0.083333
vt 0.375000 0.083333
vt 0.125000 0.583333
vt 0.208333 0.583333
vt 0.208333 0.666667
vt 0.125000 0.666667
vt 0.315077 0.606743
vt 0.351590 0.606743
vt 0.208333 0.500000
vt 0.708333 0.583333
vt 0.708333 0.666667
vt 0.708333 0.500000
vt 0.708333 0.750000
vt 0.148410 0.726590
vt 0.148410 0.690076
vt 0.148410 0.726590
vt 0.208333 0.750000
vt 0.625000 0.833333
vt 0.375000 0.833333
vt 0.625000 0.333333
vt 0.375000 0.333333
vt 0.125000 0.750000
vt 0.184923 0.523410
vt 0.148410 0.523410
vt 0.125000 0.500000
vt 0.351590 0.643257
vt 0.184923 0.690077
vt 0.184923 0.726590
vt 0.315076 0.643257
vt 0.184923 0.523410
s 0
f 41/1/1 12/2/1 4/3/1 40/4/1
f 17/5/2 20/6/2 8/7/2 7/8/2
f 42/9/3 16/10/3 6/11/3 5/12/3
f 46/13/4 24/14/4 2/15/4 38/16/4
f 48/17/5 42/9/5 5/12/5 22/18/5
f 27/19/6 11/20/6 2/21/6 24/22/6
f 19/23/6 4/24/6 12/25/6 25/26/6
f 25/26/6 12/25/6 11/20/6 27/19/6
f 17/27/5 7/8/5 43/28/5 47/29/5
f 66/30/7 65/31/7 53/31/7 56/32/7
f 7/8/3 8/7/3 15/33/3 43/28/3
f 43/28/3 15/33/3 16/10/3 42/9/3
f 38/34/1 2/35/1 11/36/1 37/37/1
f 37/37/1 11/36/1 12/2/1 41/1/1
f 41/38/5 44/39/5 45/40/5 37/41/5
f 44/39/5 47/29/5 48/17/5 45/40/5
f 62/42/8 61/43/8 55/43/8 59/42/8
f 39/44/5 17/27/5 47/29/5 44/39/5
f 15/33/6 26/45/6 28/46/6 16/10/6
f 25/26/9 27/19/9 35/19/9 33/26/9
f 8/7/6 20/47/6 26/45/6 15/33/6
f 20/47/6 19/23/6 25/26/6 26/45/6
f 16/10/6 28/46/6 23/48/6 6/11/6
f 28/46/6 27/19/6 24/22/6 23/48/6
f 70/49/10 69/50/10 49/50/10 50/51/10
f 45/40/5 48/17/5 22/18/5 46/52/5
f 5/12/4 6/11/4 23/53/4 22/54/4
f 22/54/4 23/53/4 24/14/4 46/13/4
f 40/4/2 4/3/2 19/55/2 39/56/2
f 39/56/2 19/55/2 20/6/2 17/5/2
f 35/19/11 36/46/11 76/46/11 75/19/11
f 27/19/7 28/46/7 36/46/7 35/19/7
f 26/45/8 25/26/8 33/26/8 34/45/8
f 28/46/12 26/45/12 34/45/12 36/46/12
f 10/50/5 1/51/5 38/57/5 37/41/5
f 18/58/5 3/59/5 40/60/5 39/44/5
f 3/59/5 9/31/5 41/38/5 40/60/5
f 13/61/5 14/43/5 43/28/5 42/9/5
f 9/31/5 30/32/5 44/39/5 41/38/5
f 32/62/5 10/50/5 37/41/5 45/40/5
f 1/51/5 21/63/5 46/52/5 38/57/5
f 14/43/5 29/42/5 47/29/5 43/28/5
f 31/64/5 13/61/5 42/9/5 48/17/5
f 29/42/5 31/64/5 48/17/5 47/29/5
f 30/32/5 18/58/5 39/44/5 44/39/5
f 21/63/5 32/62/5 45/40/5 46/52/5
f 59/42/5 55/43/5 54/61/5 60/64/5
f 52/59/5 51/58/5 56/32/5 53/31/5
f 49/50/5 57/62/5 58/63/5 50/51/5
f 72/62/13 71/63/13 58/63/13 57/62/13
f 68/59/8 67/65/8 51/58/8 52/59/8
f 64/61/7 63/64/7 60/64/7 54/61/7
f 69/50/8 72/62/8 57/62/8 49/50/8
f 65/31/14 68/59/14 52/59/14 53/31/14
f 63/64/15 62/42/15 59/42/15 60/64/15
f 71/63/7 70/49/7 50/51/7 58/63/7
f 61/43/16 64/61/16 54/61/16 55/43/16
f 67/65/13 66/30/13 56/32/13 51/58/13
f 14/43/17 13/61/17 64/61/17 61/43/17
f 31/64/15 29/42/15 62/42/15 63/64/15
f 13/61/7 31/64/7 63/64/7 64/61/7
f 29/42/8 14/43/8 61/43/8 62/42/8
f 18/58/13 30/32/13 66/30/13 67/65/13
f 9/31/18 3/59/18 68/59/18 65/31/18
f 3/59/8 18/58/8 67/65/8 68/59/8
f 30/32/7 9/31/7 65/31/7 66/30/7
f 21/63/7 1/51/7 70/49/7 71/63/7
f 10/50/8 32/62/8 72/62/8 69/50/8
f 32/62/13 21/63/13 71/63/13 72/62/13
f 1/51/18 10/50/18 69/50/18 70/49/18
f 73/26/19 75/19/19 79/19/19 77/26/19
f 36/46/20 34/45/20 74/45/20 76/46/20
f 34/45/21 33/26/21 73/26/21 74/45/21
f 33/26/22 35/19/22 75/19/22 73/26/22
f 78/45/6 77/26/6 79/19/6 80/46/6
f 75/19/23 76/46/23 80/46/23 79/19/23
f 76/46/24 74/45/24 78/45/24 80/46/24
f 74/45/25 73/26/25 77/26/25 78/45/25
